<svg class="barra__icono" xmlns="http://www.w3.org/2000/svg" xmlns:xlink="http://www.w3.org/1999/xlink" style="isolation:isolate" viewBox="599 149.5 155.351 145"><g><path d=" M 689.279 150.014 C 687.477 149.154 685.354 149.382 683.801 150.635 L 633.426 190.933 L 609.357 190.933 C 603.65 190.933 599 195.583 599 201.29 L 599 242.716 C 599 248.433 603.65 253.073 609.357 253.073 L 633.426 253.073 L 683.79 293.371 C 684.733 294.117 685.882 294.5 687.032 294.5 C 687.798 294.5 688.565 294.324 689.279 293.982 C 691.071 293.123 692.21 291.31 692.21 289.322 L 692.21 154.684 C 692.21 152.696 691.071 150.883 689.279 150.014 Z " fill="rgb(0,0,0)"/><path d=" M 718.423 185.382 C 716.383 183.372 713.11 183.404 711.101 185.423 C 709.092 187.463 709.113 190.736 711.142 192.756 C 718.972 200.482 723.281 210.87 723.281 222.003 C 723.281 233.136 718.972 243.524 711.142 251.25 C 709.113 253.249 709.092 256.532 711.101 258.573 C 712.116 259.598 713.452 260.105 714.778 260.105 C 716.093 260.105 717.408 259.608 718.423 258.604 C 728.241 248.941 733.637 235.933 733.637 222.003 C 733.637 208.073 728.241 195.065 718.423 185.382 Z " fill="rgb(0,0,0)"/><path d=" M 733.037 170.789 C 730.996 168.77 727.724 168.79 725.704 170.82 C 723.695 172.85 723.716 176.133 725.735 178.142 C 737.511 189.814 743.994 205.391 743.994 222.003 C 743.994 238.615 737.511 254.181 725.735 265.853 C 723.716 267.873 723.695 271.156 725.704 273.186 C 726.729 274.201 728.055 274.708 729.381 274.708 C 730.696 274.708 732.022 274.211 733.037 273.207 C 746.79 259.588 754.351 241.401 754.351 222.003 C 754.351 202.605 746.79 184.419 733.037 170.789 Z " fill="rgb(0,0,0)"/></g></svg>
