<svg class="cabeceras__cambiar" xmlns="http://www.w3.org/2000/svg" xmlns:xlink="http://www.w3.org/1999/xlink" style="isolation:isolate" viewBox="103.094 14 400.906 315"><g><g><g><path d=" M 499.808 118.42 L 399.58 18.192 C 393.987 12.601 384.921 12.603 379.331 18.195 C 376.647 20.88 375.139 24.52 375.138 28.316 L 375.138 71.271 L 274.91 71.271 C 267.002 71.271 260.591 77.681 260.591 85.589 C 260.591 93.497 267.002 99.908 274.91 99.908 L 389.457 99.908 C 397.365 99.908 403.775 93.497 403.775 85.589 L 403.775 62.879 L 469.439 128.543 L 403.775 194.207 L 403.775 171.498 C 403.775 163.59 397.365 157.18 389.457 157.18 L 231.955 157.18 L 231.955 114.225 C 231.953 106.317 225.541 99.908 217.634 99.91 C 213.839 99.91 210.198 101.418 207.514 104.102 L 107.286 204.33 C 101.696 209.922 101.696 218.985 107.286 224.576 L 207.514 324.804 C 210.199 327.49 213.84 328.999 217.637 329 C 219.519 329.006 221.384 328.636 223.121 327.912 C 228.47 325.694 231.957 320.473 231.955 314.681 L 231.955 271.726 L 332.183 271.726 C 340.092 271.726 346.502 265.316 346.502 257.408 C 346.502 249.5 340.092 243.089 332.183 243.089 L 217.637 243.089 C 209.729 243.089 203.319 249.5 203.319 257.408 L 203.319 280.117 L 137.655 214.453 L 203.319 148.789 L 203.319 171.498 C 203.319 179.406 209.729 185.817 217.637 185.817 L 375.138 185.817 L 375.138 228.772 C 375.14 236.68 381.552 243.089 389.459 243.087 C 393.255 243.086 396.895 241.578 399.58 238.895 L 499.808 138.666 C 505.397 133.075 505.397 124.011 499.808 118.42 Z " fill="rgb(0,0,0)"/></g></g></g></svg>
