<svg  class="barra__icono" xmlns="http://www.w3.org/2000/svg" xmlns:xlink="http://www.w3.org/1999/xlink" style="isolation:isolate" viewBox="210 171.111 100 145.731"><g><g><g><path d=" M 310 239.404 C 310 237.046 308.088 235.134 305.731 235.134 C 303.372 235.134 301.461 237.046 301.461 239.404 C 301.461 262.265 282.862 280.865 260 280.865 C 237.138 280.865 218.539 262.265 218.539 239.404 C 218.539 237.046 216.627 235.134 214.269 235.134 C 211.911 235.134 210 237.046 210 239.404 C 210 265.535 230.152 287.046 255.731 289.22 L 255.731 308.303 L 246.281 308.303 C 243.923 308.303 242.012 310.215 242.012 312.573 C 242.012 314.931 243.923 316.842 246.281 316.842 L 273.72 316.842 C 276.077 316.842 277.989 314.931 277.989 312.573 C 277.989 310.215 276.077 308.303 273.72 308.303 L 264.269 308.303 L 264.269 289.22 C 289.848 287.046 310 265.535 310 239.404 Z " fill="rgb(0,0,0)"/></g></g><g><g><path d=" M 260 171.111 C 247.56 171.111 237.438 181.232 237.438 193.673 L 237.438 239.404 C 237.438 251.844 247.56 261.965 260 261.965 C 272.441 261.965 282.562 251.844 282.562 239.403 L 282.562 193.673 C 282.562 181.232 272.441 171.111 260 171.111 Z " fill="rgb(0,0,0)"/></g></g></g></svg>
