<svg class="barra__icono" xmlns="http://www.w3.org/2000/svg" xmlns:xlink="http://www.w3.org/1999/xlink" style="isolation:isolate" viewBox="371.444 105.722 145 145"><g><path d=" M 371.444 105.722 L 516.444 105.722 L 516.444 250.722 L 371.444 250.722 L 371.444 105.722 Z " fill="none"/><path d=" M 468.111 111.764 L 395.611 111.764 C 388.965 111.764 383.528 117.201 383.528 123.847 L 383.528 208.431 L 395.611 208.431 L 395.611 123.847 L 468.111 123.847 L 468.111 111.764 Z  M 462.069 135.931 L 498.319 172.181 L 498.319 232.597 C 498.319 239.243 492.882 244.681 486.236 244.681 L 419.717 244.681 C 413.072 244.681 407.694 239.243 407.694 232.597 L 407.755 148.014 C 407.755 141.368 413.132 135.931 419.778 135.931 L 462.069 135.931 Z  M 456.028 178.222 L 489.257 178.222 L 456.028 144.993 L 456.028 178.222 Z " fill="rgb(0,0,0)"/></g></svg>
